<svg width="31" height="30" viewBox="0 0 31 30" fill="none" xmlns="http://www.w3.org/2000/svg">
<path opacity="0.4" d="M19.903 24.8945H10.6624C7.97189 24.8945 5.78265 22.7484 5.78265 20.11V14.8372C5.78265 12.1988 7.97189 10.0528 10.6624 10.0528H19.903C22.5934 10.0528 24.7827 12.1988 24.7827 14.8372V20.11C24.7827 22.7484 22.5934 24.8945 19.903 24.8945Z" fill="#8D8D8D"/>
<path d="M19.0378 13.0211C18.6266 13.0211 18.2929 12.7009 18.2929 12.3063V9.41644C18.2929 7.82761 16.9462 6.53519 15.2916 6.53519C14.5298 6.53519 13.7303 6.82875 13.1613 7.36916C12.5912 7.91148 12.2754 8.63298 12.2724 9.4031V12.3063C12.2724 12.7009 11.9387 13.0211 11.5275 13.0211C11.1164 13.0211 10.7827 12.7009 10.7827 12.3063V9.41644C10.7876 8.24507 11.2604 7.16424 12.1125 6.35506C12.9636 5.54396 14.064 5.13698 15.2946 5.10553C17.7675 5.10553 19.7827 7.03939 19.7827 9.41644V12.3063C19.7827 12.7009 19.449 13.0211 19.0378 13.0211Z" fill="#8D8D8D"/>
</svg>
