<svg width="31" height="30" viewBox="0 0 31 30" fill="none" xmlns="http://www.w3.org/2000/svg">
<path d="M12.7304 23.2506V20.3693C12.7304 19.6392 13.3623 19.046 14.1451 19.0414H17.0193C17.8055 19.0414 18.4429 19.636 18.4429 20.3693V20.3693V23.2422C18.4429 23.8755 18.9907 24.3901 19.6696 24.3947H21.6305C22.5463 24.3969 23.4254 24.0591 24.0738 23.4559C24.7223 22.8527 25.0867 22.0336 25.0867 21.1794V12.995C25.0866 12.305 24.7587 11.6505 24.1913 11.2078L17.5296 6.23871C16.3652 5.36956 14.702 5.39764 13.5721 6.30552L7.05368 11.2078C6.45941 11.6374 6.10422 12.2939 6.08667 12.995V21.1711C6.08667 22.9514 7.63405 24.3947 9.54284 24.3947H11.459C11.7858 24.3969 12.1002 24.2774 12.3321 24.0626C12.5641 23.8477 12.6946 23.5555 12.6946 23.2506H12.7304Z" fill="#8D8D8D"/>
</svg>
