<svg width="31" height="30" viewBox="0 0 31 30" fill="none" xmlns="http://www.w3.org/2000/svg">
<path opacity="0.4" d="M15.248 24.242C12.9649 22.9172 10.8426 21.3551 8.9199 19.5843C7.56252 18.3199 6.52587 16.776 5.88918 15.0707C4.75155 11.7449 6.07582 7.94407 9.77313 6.81568C11.7246 6.23991 13.8471 6.59336 15.4791 7.7659C17.1117 6.59467 19.2334 6.24133 21.185 6.81568C24.8823 7.94407 26.2155 11.7449 25.0778 15.0707C24.4463 16.7744 23.4158 18.3181 22.0649 19.5843C20.1404 21.3532 18.0183 22.9151 15.7368 24.242L15.488 24.3947L15.248 24.242Z" fill="#8D8D8D"/>
<path d="M15.4829 24.3947L15.248 24.242C12.9621 22.9173 10.8369 21.3552 8.911 19.5842C7.54719 18.3216 6.50437 16.7777 5.8625 15.0707C4.73376 11.7449 6.05803 7.94406 9.75534 6.81567C11.7068 6.2399 13.8573 6.59363 15.4829 7.77598V24.3947Z" fill="#8D8D8D"/>
<path d="M21.7024 13.1203C21.5016 13.1082 21.3145 13.0139 21.185 12.8595C21.0556 12.7051 20.9952 12.5042 21.0179 12.3039C21.0396 11.644 20.64 11.0434 20.0237 10.8097C19.6329 10.7095 19.3963 10.3119 19.494 9.91979C19.5868 9.53397 19.9713 9.29408 20.3578 9.38092C20.4066 9.38852 20.4536 9.40513 20.4964 9.42991C21.7321 9.87666 22.5321 11.079 22.4684 12.3937C22.4664 12.5929 22.3837 12.7828 22.2393 12.9198C22.0949 13.0568 21.9011 13.1292 21.7024 13.1203Z" fill="#8D8D8D"/>
</svg>
