<svg width="30" height="30" viewBox="0 0 30 30" fill="none" xmlns="http://www.w3.org/2000/svg">
<path d="M22.7695 14.6491C22.039 13.805 21.7071 13.0736 21.7071 11.8309V11.4084C21.7071 9.78911 21.3304 8.74577 20.5115 7.70242C19.2493 6.08211 17.1244 5.10553 15.0442 5.10553H14.9558C12.9194 5.10553 10.8611 6.03726 9.577 7.59181C8.71333 8.65608 8.29293 9.74427 8.29293 11.4084V11.8309C8.29293 13.0736 7.98284 13.805 7.23049 14.6491C6.67691 15.2709 6.5 16.0701 6.5 16.9351C6.5 17.801 6.78723 18.6211 7.36367 19.2878C8.11602 20.087 9.17846 20.5972 10.2638 20.6859C11.835 20.8633 13.4063 20.93 15.0005 20.93C16.5937 20.93 18.165 20.8184 19.7372 20.6859C20.8215 20.5972 21.884 20.087 22.6363 19.2878C23.2118 18.6211 23.5 17.801 23.5 16.9351C23.5 16.0701 23.3231 15.2709 22.7695 14.6491Z" fill="#8D8D8D"/>
<path opacity="0.4" d="M17.0087 22.1521C16.5088 22.0464 13.4626 22.0464 12.9627 22.1521C12.5353 22.2497 12.0732 22.4769 12.0732 22.9752C12.098 23.4505 12.3793 23.87 12.7689 24.1361L12.7679 24.1371C13.2718 24.5257 13.8631 24.7729 14.4823 24.8616C14.8123 24.9064 15.1482 24.9044 15.4901 24.8616C16.1083 24.7729 16.6996 24.5257 17.2035 24.1371L17.2025 24.1361C17.5921 23.87 17.8734 23.4505 17.8982 22.9752C17.8982 22.4769 17.4361 22.2497 17.0087 22.1521Z" fill="#8D8D8D"/>
</svg>
